<?xml version="1.0" standalone="no"?>
<!DOCTYPE svg PUBLIC "-//W3C//DTD SVG 20010904//EN"
 "http://www.w3.org/TR/2001/REC-SVG-20010904/DTD/svg10.dtd">
<svg version="1.0" xmlns="http://www.w3.org/2000/svg"
 width="504.000000pt" height="381.000000pt" viewBox="0 0 504.000000 381.000000"
 preserveAspectRatio="xMidYMid meet">

<g transform="translate(0.000000,381.000000) scale(0.100000,-0.100000)"
fill="#000000" stroke="none">
<path d="M155 3619 c33 -107 157 -246 315 -351 178 -118 306 -161 465 -156
l90 3 -132 67 c-73 37 -187 103 -255 146 -68 43 -179 111 -248 152 -69 40
-151 93 -184 118 -52 40 -57 42 -51 21z"/>
<path d="M4835 3599 c-27 -22 -108 -74 -180 -116 -71 -42 -185 -112 -253 -155
-68 -43 -182 -109 -255 -146 l-132 -67 90 -3 c56 -2 117 3 161 13 210 47 508
264 591 432 20 40 34 75 32 77 -2 2 -26 -14 -54 -35z"/>
<path d="M210 3342 c0 -16 55 -90 109 -145 94 -98 234 -183 376 -226 99 -31
257 -30 318 1 15 8 -1 17 -85 44 -56 19 -218 92 -358 161 -296 146 -360 176
-360 165z"/>
<path d="M4709 3294 c-63 -31 -199 -98 -304 -149 -104 -52 -236 -109 -292
-127 -56 -18 -103 -36 -103 -39 0 -14 96 -30 179 -30 170 0 365 88 518 234 60
57 131 153 121 162 -3 3 -56 -20 -119 -51z"/>
<path d="M209 3132 c20 -37 107 -126 170 -174 146 -111 333 -178 496 -178 84
0 211 17 201 27 -2 2 -63 20 -136 38 -151 39 -305 99 -500 192 -231 111 -242
116 -231 95z"/>
<path d="M4650 3061 c-238 -114 -393 -175 -554 -217 -70 -18 -130 -35 -132
-37 -3 -2 21 -9 52 -16 88 -17 230 -14 315 8 157 40 331 142 434 253 47 51 82
98 73 98 -2 0 -86 -40 -188 -89z"/>
<path d="M1000 3070 c0 -12 78 -91 105 -107 19 -11 19 -12 -4 -12 -38 -1 -141
-32 -141 -43 0 -9 91 -53 162 -78 l37 -14 -56 -22 c-99 -40 -98 -49 5 -73 49
-12 102 -21 118 -21 25 0 19 -6 -40 -38 -38 -21 -71 -43 -73 -49 -5 -14 36
-25 127 -32 l75 -6 -55 -32 c-55 -33 -100 -67 -100 -77 0 -9 72 -26 110 -26
l34 0 -37 -38 c-20 -21 -37 -41 -37 -45 0 -4 35 -7 77 -7 l77 0 -42 -36 c-23
-19 -42 -39 -42 -44 0 -4 34 -11 75 -15 l76 -7 -47 -41 c-46 -40 -47 -42 -23
-48 13 -4 41 -7 62 -8 21 -1 37 -4 35 -8 -2 -5 -12 -25 -23 -45 -10 -21 -16
-40 -13 -43 3 -3 25 -1 49 4 24 5 45 9 46 7 2 -2 -8 -29 -22 -61 -14 -31 -23
-60 -21 -63 3 -3 31 4 62 16 l56 20 -7 -26 c-29 -107 -29 -107 51 -63 l52 30
-1 -60 c0 -32 3 -62 7 -66 3 -4 26 12 49 35 44 43 57 45 57 8 0 -34 20 -96 31
-96 5 0 18 13 27 30 21 37 28 38 35 3 3 -16 12 -37 20 -47 13 -18 16 -16 43
32 16 29 31 52 34 52 4 0 11 -15 18 -34 7 -18 20 -41 31 -50 17 -15 19 -14 36
24 21 46 25 48 43 20 18 -29 34 -25 22 6 -6 14 -10 77 -9 139 1 62 -2 118 -5
124 -4 6 -5 11 -2 11 3 0 24 -35 45 -77 l40 -78 1 66 c0 36 -7 90 -16 120 -30
101 -78 158 -210 247 -42 27 110 -51 161 -83 30 -20 76 -46 101 -60 26 -14 39
-25 30 -25 -9 0 -34 9 -56 20 -51 26 -53 25 -36 -8 33 -65 63 -322 38 -322 -5
0 -22 24 -38 53 l-29 52 -3 -47 c-2 -34 7 -71 34 -145 20 -54 38 -120 40 -148
l3 -50 -9 57 c-8 47 -33 118 -43 118 -1 0 0 -24 1 -54 9 -143 -73 -291 -171
-306 l-42 -7 30 -12 c19 -8 48 -10 80 -6 48 6 49 6 32 -13 -25 -27 -21 -31 20
-25 l38 6 -18 -24 c-37 -52 -39 -59 -19 -59 10 0 41 11 68 25 27 14 50 25 51
25 1 0 -3 -14 -9 -31 -6 -16 -7 -33 -4 -36 9 -10 66 48 72 74 3 12 17 29 30
38 24 15 24 15 24 -17 0 -52 15 -66 33 -32 l15 29 7 -51 c9 -64 21 -86 35 -64
6 8 18 36 27 63 16 43 33 62 33 36 0 -18 42 -109 51 -109 4 0 13 28 20 61 l12
62 15 -29 c14 -27 16 -27 23 -9 4 11 8 32 8 48 1 24 3 26 21 15 11 -7 24 -24
30 -39 13 -31 67 -85 76 -76 3 3 2 20 -4 36 -6 17 -10 31 -9 31 1 0 24 -11 51
-25 27 -14 58 -25 68 -25 19 0 19 1 0 28 -36 52 -36 54 -6 52 46 -3 48 -1 28
21 l-18 20 49 -6 c32 -4 61 -2 80 6 l30 12 -44 7 c-37 6 -53 16 -87 54 -54 59
-78 128 -79 228 0 43 -1 78 -2 78 -10 0 -35 -71 -42 -118 -8 -53 -9 -54 -10
-16 -1 27 12 76 35 135 32 82 57 209 41 209 -3 0 -20 -26 -39 -57 l-33 -58 -3
65 c-4 81 14 201 38 258 11 23 17 42 14 42 -3 0 -22 -9 -44 -20 -22 -11 -47
-20 -57 -19 -15 0 -14 2 4 9 11 5 57 31 100 58 70 44 238 132 189 100 -82 -55
-138 -103 -161 -135 -37 -55 -65 -154 -65 -232 l1 -66 40 78 c21 42 41 77 43
77 2 0 0 -16 -4 -35 -4 -20 -6 -70 -3 -113 3 -42 1 -94 -5 -114 -11 -40 0 -51
18 -18 15 29 23 25 43 -22 15 -37 19 -40 32 -28 8 8 23 33 34 55 l19 39 32
-53 c35 -57 44 -57 64 4 l13 37 22 -31 c12 -17 26 -31 30 -31 10 0 31 70 31
104 0 14 2 26 5 26 3 0 24 -18 46 -40 23 -22 45 -40 50 -40 5 0 9 29 9 65 l0
65 53 -30 c30 -16 57 -30 62 -30 8 0 2 56 -10 97 l-7 22 52 -20 c29 -11 56
-19 61 -17 4 2 -3 30 -16 62 -13 33 -23 61 -22 62 1 2 22 -2 46 -7 24 -5 46
-7 50 -4 3 4 -4 24 -17 45 -12 21 -22 41 -22 43 0 3 23 7 50 9 28 3 54 8 58
13 4 4 -12 24 -36 45 l-43 38 76 7 c41 4 75 10 75 14 0 10 -50 55 -75 69 -16
9 -3 11 63 12 45 0 82 3 82 7 0 4 -17 24 -37 45 l-37 38 34 0 c41 0 110 18
110 28 -1 9 -75 63 -120 88 l-35 19 50 3 c79 4 157 22 152 35 -2 7 -34 28 -72
47 -55 28 -64 36 -44 38 13 1 66 12 118 23 107 24 108 31 8 72 l-58 23 83 32
c46 17 92 38 102 45 19 14 19 15 -3 26 -12 7 -49 18 -82 25 l-59 12 44 31 c25
18 52 45 60 62 l16 30 -47 -4 c-506 -49 -481 -42 -528 -135 -12 -25 -41 -102
-64 -172 -74 -232 -133 -319 -263 -392 -59 -33 -68 -35 -97 -25 -48 17 -116 4
-187 -36 -34 -19 -76 -35 -93 -35 -34 0 -41 -14 -13 -29 16 -9 16 -10 -1 -17
-18 -7 -68 -1 -99 11 -15 6 -18 2 -19 -21 0 -16 -4 -37 -7 -47 -7 -16 -12 -15
-55 14 l-47 31 -47 -31 c-43 -29 -48 -30 -55 -14 -3 10 -7 31 -7 47 -1 23 -4
27 -18 21 -32 -12 -82 -18 -100 -11 -17 7 -17 8 0 17 26 15 20 29 -13 29 -16
0 -59 16 -95 35 -79 42 -126 51 -180 37 -36 -10 -45 -8 -100 21 -131 70 -198
170 -270 402 -40 129 -72 200 -102 227 -26 23 -82 34 -273 52 -91 9 -186 18
-212 21 -27 2 -48 0 -48 -5z m1297 -1565 c-3 -43 -1 -77 4 -81 5 -3 25 4 44
16 l35 22 -7 -34 c-9 -50 -24 -81 -17 -36 l6 38 -28 -15 c-53 -27 -57 -22 -52
55 3 39 3 70 1 70 -3 0 -16 -9 -30 -20 -32 -25 -35 -22 -24 16 9 28 9 28 11 4
l1 -25 27 32 c15 18 29 33 31 33 2 0 1 -34 -2 -75z m503 35 c2 24 2 24 11 -4
11 -38 8 -41 -24 -16 -14 11 -28 20 -30 20 -3 0 -3 -31 0 -70 7 -77 2 -82 -51
-55 l-28 15 6 -38 c7 -43 -7 -16 -19 36 l-7 33 34 -21 c18 -11 36 -20 41 -20
4 0 7 37 7 82 l0 82 30 -34 c29 -35 29 -35 30 -10z"/>
<path d="M340 2860 c0 -21 113 -105 196 -146 171 -84 370 -115 517 -80 87 20
89 31 10 46 -37 7 -133 31 -213 53 -318 87 -510 135 -510 127z"/>
<path d="M4480 2810 c-118 -31 -267 -71 -330 -88 -63 -17 -143 -36 -178 -43
-74 -14 -70 -25 15 -45 147 -35 345 -4 517 80 82 40 209 136 196 149 -3 2
-102 -21 -220 -53z"/>
<path d="M2356 2781 c-32 -11 -63 -24 -68 -29 -17 -17 0 -32 25 -23 12 4 36
11 52 15 l30 6 -29 -24 -28 -23 43 -43 44 -43 -44 38 c-78 67 -157 90 -215 63
-35 -15 -40 -38 -20 -87 16 -41 17 -41 28 -19 9 18 21 23 51 25 l40 1 -35 -7
c-49 -11 -24 -19 85 -30 50 -4 75 -9 56 -10 -30 -1 -33 -3 -26 -23 30 -92 12
-136 -79 -189 l-51 -30 48 3 c26 2 47 1 47 -1 0 -3 -10 -15 -22 -28 l-21 -23
22 0 c12 0 37 7 56 14 41 18 45 9 10 -24 -14 -13 -25 -28 -25 -33 0 -15 62 1
92 23 l27 20 -6 -51 c-6 -50 -5 -51 15 -40 11 6 30 23 41 37 l21 27 21 -27
c11 -14 30 -31 41 -37 20 -11 21 -10 15 40 l-6 51 27 -20 c30 -22 92 -38 92
-23 0 5 -11 20 -25 33 -24 23 -35 47 -16 35 19 -11 102 -22 107 -14 3 5 -2 12
-10 15 -27 10 -17 24 13 18 16 -4 32 -1 35 5 4 6 3 11 -2 11 -20 0 -104 65
-117 91 -21 39 -20 56 3 37 36 -31 42 -29 23 9 -11 21 -25 65 -31 98 -7 33
-16 68 -21 77 -6 11 -5 18 4 21 20 7 -13 58 -52 81 -51 29 -186 33 -265 7z"/>
<path d="M458 2615 c12 -9 64 -36 115 -60 162 -77 340 -109 473 -86 73 13 154
44 154 59 0 5 -33 12 -73 15 -40 4 -156 23 -257 42 -220 43 -453 60 -412 30z"/>
<path d="M4380 2623 c-19 -3 -114 -20 -210 -38 -96 -19 -210 -37 -252 -41 -43
-4 -78 -11 -78 -16 0 -15 81 -46 154 -59 131 -22 315 11 473 86 51 24 103 51
115 59 21 15 17 16 -72 14 -52 0 -111 -3 -130 -5z"/>
<path d="M605 2423 c-44 -11 -33 -21 44 -42 259 -70 463 -68 574 5 22 14 37
27 35 29 -6 5 -633 14 -653 8z"/>
<path d="M3955 2421 l-180 -6 40 -27 c111 -75 315 -78 576 -7 119 32 93 44
-99 45 -86 0 -238 -2 -337 -5z"/>
<path d="M1260 2310 c-19 -4 -109 -11 -200 -14 -159 -6 -253 -20 -295 -43 -17
-10 -15 -12 20 -22 135 -36 305 -38 397 -6 44 15 129 78 118 87 -3 3 -21 1
-40 -2z"/>
<path d="M3740 2310 c0 -16 75 -70 119 -86 91 -31 261 -28 396 7 35 10 37 12
20 22 -42 23 -136 37 -295 43 -91 3 -182 10 -202 14 -21 4 -38 4 -38 0z"/>
<path d="M1163 2180 c-161 -30 -233 -50 -298 -83 l-40 -21 30 -7 c48 -11 173
-10 244 2 80 14 172 56 226 103 38 33 39 35 15 35 -14 -1 -93 -13 -177 -29z"/>
<path d="M3715 2174 c54 -47 146 -89 226 -103 71 -12 195 -13 244 -2 l30 7
-34 18 c-64 34 -146 57 -311 86 -91 17 -172 30 -180 30 -9 -1 1 -15 25 -36z"/>
<path d="M1259 2070 c-148 -48 -235 -88 -265 -121 -16 -18 -15 -19 43 -19 86
0 169 18 239 51 62 29 134 96 134 124 0 8 -1 15 -2 14 -2 -1 -69 -22 -149 -49z"/>
<path d="M3634 2091 c49 -93 202 -161 366 -160 l65 0 -30 25 c-48 40 -113 70
-235 107 -63 19 -128 40 -143 46 -39 15 -39 15 -23 -18z"/>
<path d="M1463 2009 c-5 -5 -52 -26 -104 -45 -52 -20 -119 -49 -150 -65 -57
-31 -138 -104 -127 -115 8 -7 144 27 221 56 68 26 133 73 164 119 31 46 29 83
-4 50z"/>
<path d="M3550 2006 c0 -46 96 -132 187 -166 77 -29 213 -63 221 -56 11 11
-70 84 -127 115 -31 16 -94 43 -140 60 -46 17 -95 38 -107 46 -29 18 -34 19
-34 1z"/>
<path d="M1475 1878 c-55 -28 -121 -66 -147 -85 -46 -33 -96 -98 -84 -110 8
-9 156 45 201 74 22 14 53 37 68 52 30 27 70 96 65 111 -2 5 -48 -14 -103 -42z"/>
<path d="M3460 1920 c0 -6 9 -27 19 -48 36 -70 113 -125 234 -168 43 -15 80
-24 84 -21 10 11 -46 83 -90 114 -58 42 -247 136 -247 123z"/>
<path d="M1600 1802 c-42 -26 -90 -58 -109 -71 -40 -29 -91 -97 -91 -122 0
-18 2 -18 53 2 67 26 114 54 155 93 39 36 75 100 70 126 -3 16 -13 12 -78 -28z"/>
<path d="M3360 1832 c0 -78 93 -168 229 -221 49 -20 51 -20 51 -2 0 44 -69
113 -180 180 -30 19 -65 40 -77 49 -21 13 -23 13 -23 -6z"/>
<path d="M1675 1679 c-130 -133 -136 -155 -27 -100 91 46 160 139 150 202 -2
17 -24 -1 -123 -102z"/>
<path d="M3240 1777 c0 -71 67 -157 155 -201 106 -51 99 -29 -32 104 -111 113
-123 122 -123 97z"/>
<path d="M1871 1733 c-11 -21 -45 -76 -75 -123 -75 -113 -75 -134 0 -84 71 47
114 118 114 188 0 59 -15 66 -39 19z"/>
<path d="M3133 1755 c-12 -33 4 -111 32 -153 24 -37 105 -102 127 -102 18 0 5
31 -46 107 -30 44 -64 99 -75 122 -23 45 -29 49 -38 26z"/>
<path d="M1975 1668 c-54 -122 -66 -158 -63 -183 3 -18 8 -15 45 21 59 61 87
124 81 185 -3 28 -9 54 -14 59 -5 5 -26 -30 -49 -82z"/>
<path d="M3010 1736 c-26 -70 -1 -154 71 -227 33 -34 43 -40 46 -27 6 24 -9
70 -61 182 -43 96 -46 98 -56 72z"/>
<path d="M2110 1706 c0 -20 -11 -79 -25 -132 -36 -140 -31 -168 18 -101 62 82
81 167 50 226 -25 49 -43 51 -43 7z"/>
<path d="M2893 1713 c-26 -39 -23 -126 6 -183 25 -48 59 -90 74 -90 11 0 1 61
-24 155 -10 38 -19 87 -19 107 0 45 -13 48 -37 11z"/>
<path d="M2030 1323 c-14 -9 -36 -26 -50 -38 -49 -44 -166 -68 -210 -45 -16 9
-18 8 -13 -6 5 -14 3 -15 -15 -5 -51 27 -122 5 -122 -39 0 -11 -9 -37 -20 -58
-22 -41 -17 -81 12 -99 7 -4 19 -20 25 -35 12 -26 16 -28 70 -27 53 1 55 2 31
12 -16 6 -28 15 -28 20 0 6 -7 15 -17 22 -15 11 -15 15 3 51 24 49 87 92 159
107 76 15 84 6 61 -71 -10 -32 -16 -67 -14 -78 3 -16 6 -15 21 11 44 80 58
117 53 143 -6 26 -1 29 81 69 l88 43 -47 -3 c-27 -1 -48 0 -48 2 0 2 7 13 17
23 21 24 -2 25 -37 1z m-381 -229 c-6 -16 -13 -24 -16 -17 -5 13 16 58 23 50
3 -2 -1 -17 -7 -33z"/>
<path d="M2973 1322 c25 -27 22 -30 -30 -26 l-48 4 88 -43 c82 -40 87 -43 81
-69 -5 -24 11 -67 51 -140 26 -47 33 -4 10 62 -29 82 -17 93 78 69 92 -23 182
-122 141 -155 -8 -6 -14 -15 -14 -21 0 -5 -12 -14 -27 -20 -25 -10 -23 -11 30
-12 53 -1 58 1 70 27 6 15 21 34 31 43 24 20 25 72 3 97 -9 10 -17 30 -17 45
0 40 -26 59 -74 55 -23 -3 -50 -8 -61 -13 -18 -8 -19 -7 -5 10 14 17 14 18 -7
7 -53 -29 -159 -2 -236 60 -52 41 -95 54 -64 20z m437 -241 c0 -21 -16 -2 -25
29 -7 24 -7 24 9 5 8 -11 16 -27 16 -34z"/>
<path d="M2321 1193 c-52 -171 -62 -229 -36 -219 24 9 18 -5 -51 -120 -73
-121 -168 -304 -161 -310 8 -9 85 86 125 154 41 70 92 189 92 216 0 19 17 21
23 4 2 -7 11 2 21 20 21 40 27 41 20 2 -4 -16 -3 -42 1 -57 l7 -28 16 30 16
30 9 -32 c6 -18 13 -33 17 -33 4 0 13 19 19 42 l13 42 14 -32 c18 -44 32 -40
40 13 3 25 10 45 14 45 4 0 11 -20 14 -45 8 -53 21 -57 39 -12 l14 32 15 -45
16 -45 15 34 15 34 15 -28 c14 -28 15 -28 22 -6 4 13 4 39 1 59 l-7 37 23 -34
c12 -19 24 -29 26 -23 6 18 22 14 22 -4 0 -26 50 -144 90 -214 38 -65 119
-165 127 -156 7 6 -88 189 -161 310 -36 60 -66 113 -66 117 0 5 7 6 16 2 13
-5 15 1 8 43 -7 46 -70 263 -79 272 -6 7 -25 -45 -25 -70 0 -20 -1 -20 -20 -3
-19 17 -20 17 -30 -11 -7 -16 -14 -41 -17 -56 -3 -16 -8 -28 -12 -28 -3 0 -16
34 -29 75 -12 41 -27 75 -32 75 -9 0 -50 -101 -50 -125 0 -26 -18 -25 -23 3
-3 15 -10 40 -17 56 -10 27 -12 28 -29 12 -17 -16 -19 -15 -25 23 -3 22 -10
42 -15 46 -5 3 -23 -39 -40 -92z"/>
<path d="M2219 942 c-20 -31 -66 -104 -103 -162 -36 -58 -66 -112 -66 -120 0
-21 85 65 130 133 43 63 83 160 78 188 -2 13 -14 1 -39 -39z"/>
<path d="M2784 965 c9 -65 71 -176 138 -249 34 -38 64 -64 66 -58 3 11 -54
109 -150 256 -58 87 -60 89 -54 51z"/>
<path d="M2297 843 c-61 -100 -117 -228 -133 -304 -8 -40 -13 -74 -10 -76 8
-8 61 71 104 154 48 94 85 209 80 255 l-3 33 -38 -62z"/>
<path d="M2700 869 c0 -82 93 -303 162 -382 l28 -32 -6 40 c-14 97 -104 307
-164 385 l-20 25 0 -36z"/>
<path d="M2332 741 c-60 -160 -95 -296 -90 -349 3 -35 4 -34 50 58 26 52 56
123 68 158 28 85 45 211 34 246 -9 25 -15 14 -62 -113z"/>
<path d="M2645 852 c-19 -90 42 -307 130 -452 l27 -45 -6 65 c-6 79 -39 196
-99 350 -42 109 -45 113 -52 82z"/>
<path d="M2448 839 c-9 -19 -35 -107 -58 -195 -34 -128 -43 -182 -47 -278 -7
-149 4 -147 53 12 55 177 75 288 72 400 l-3 97 -17 -36z"/>
<path d="M2573 738 c4 -98 12 -158 32 -228 41 -150 78 -260 88 -260 6 0 7 48
4 118 -4 92 -14 151 -46 276 -42 160 -64 226 -77 226 -4 0 -4 -60 -1 -132z"/>
<path d="M2496 747 c-24 -151 -32 -347 -17 -428 15 -86 30 -139 40 -139 5 0
17 28 27 63 26 85 26 336 0 495 -10 62 -22 114 -26 117 -3 2 -15 -46 -24 -108z"/>
</g>
</svg>
